<svg xmlns="http://www.w3.org/2000/svg" viewBox="0 0 283 283" fill="none">
<g>
<path d="M282.71 140C282.71 167.69 274.5 194.76 259.11 217.78C243.73 240.8 221.86 258.75 196.28 269.34C170.7 279.94 142.55 282.71 115.39 277.31C88.24 271.91 63.29 258.57 43.71 238.99C24.13 219.42 10.8 194.47 5.4 167.31C0 140.16 2.77 112.01 13.36 86.42C23.96 60.84 41.9 38.98 64.93 23.59C87.95 8.21 115.02 0 142.71 0V60C126.88 60 111.42 64.69 98.26 73.48C85.11 82.27 74.85 94.77 68.8 109.39C62.74 124 61.16 140.09 64.24 155.61C67.33 171.13 74.95 185.38 86.14 196.57C97.33 207.76 111.58 215.38 127.1 218.46C142.62 221.55 158.7 219.97 173.32 213.91C187.94 207.86 200.43 197.6 209.22 184.45C218.02 171.29 222.71 155.82 222.71 140H282.71Z" fill="currentColor"/>
</g>
</svg>
